<svg width="32" height="28" viewBox="0 0 32 28" fill="none" xmlns="http://www.w3.org/2000/svg">
<g clip-path="url(#clip0_45_12786)">
<path d="M9.85627 0H0.0163574V27.0593H9.85627V0ZM4.93631 24.5993C3.57842 24.5993 2.47634 23.4972 2.47634 22.1393C2.47634 20.7814 3.57847 19.6793 4.93631 19.6793C6.29421 19.6793 7.39629 20.7815 7.39629 22.1393C7.3961 23.4974 6.29416 24.5993 4.93631 24.5993ZM7.3961 9.83991H2.47614V8.61002H7.3961V9.83991ZM7.3961 7.37993H2.47614V6.15004H7.3961V7.37993ZM7.3961 4.91995H2.47614V3.69006H7.3961V4.91995Z" fill="white"/>
<path d="M20.9259 0H11.0864V27.0593H20.9263L20.9259 0ZM16.0059 24.5993C14.648 24.5993 13.5459 23.4972 13.5459 22.1393C13.5459 20.7814 14.6481 19.6793 16.0059 19.6793C17.3637 19.6793 18.4659 20.7815 18.4659 22.1393C18.4659 23.4974 17.3637 24.5993 16.0059 24.5993ZM18.4659 9.83991H13.5459L13.5457 8.61002H18.4657L18.4659 9.83991ZM18.4659 7.37993H13.5459L13.5457 6.15004H18.4657L18.4659 7.37993ZM18.4659 4.91995H13.5459L13.5457 3.69006H18.4657L18.4659 4.91995Z" fill="white"/>
<path d="M31.9957 0H22.1558V27.0593H31.9957V0ZM27.0757 24.5993C25.7178 24.5993 24.6157 23.4972 24.6157 22.1393C24.6157 20.7814 25.7179 19.6793 27.0757 19.6793C28.4336 19.6793 29.5357 20.7815 29.5357 22.1393C29.5357 23.4974 28.4336 24.5993 27.0757 24.5993ZM29.5357 9.83991H24.6157V8.61002H29.5357V9.83991ZM29.5357 7.37993H24.6157V6.15004H29.5357V7.37993ZM29.5357 4.91995H24.6157V3.69006H29.5357V4.91995Z" fill="white"/>
</g>
<defs>
<clipPath id="clip0_45_12786">
<rect width="32" height="27.0713" fill="white"/>
</clipPath>
</defs>
</svg>
