<svg width="16" height="16" viewBox="0 0 16 16" fill="none" xmlns="http://www.w3.org/2000/svg">
<path fill-rule="evenodd" clip-rule="evenodd" d="M3.19995 3.2001C3.19995 2.77575 3.36852 2.36878 3.66858 2.06873C3.96864 1.76867 4.3756 1.6001 4.79995 1.6001H8.46875C8.89306 1.60019 9.29996 1.76882 9.59995 2.0689L12.3312 4.8001C12.6312 5.10009 12.7999 5.50699 12.8 5.9313V12.8001C12.8 13.2244 12.6314 13.6314 12.3313 13.9315C12.0313 14.2315 11.6243 14.4001 11.2 14.4001H4.79995C4.3756 14.4001 3.96864 14.2315 3.66858 13.9315C3.36852 13.6314 3.19995 13.2244 3.19995 12.8001V3.2001ZM4.79995 8.0001C4.79995 7.78792 4.88424 7.58444 5.03427 7.43441C5.1843 7.28438 5.38778 7.2001 5.59995 7.2001H10.4C10.6121 7.2001 10.8156 7.28438 10.9656 7.43441C11.1157 7.58444 11.2 7.78792 11.2 8.0001C11.2 8.21227 11.1157 8.41575 10.9656 8.56578C10.8156 8.71581 10.6121 8.8001 10.4 8.8001H5.59995C5.38778 8.8001 5.1843 8.71581 5.03427 8.56578C4.88424 8.41575 4.79995 8.21227 4.79995 8.0001ZM5.59995 10.4001C5.38778 10.4001 5.1843 10.4844 5.03427 10.6344C4.88424 10.7844 4.79995 10.9879 4.79995 11.2001C4.79995 11.4123 4.88424 11.6158 5.03427 11.7658C5.1843 11.9158 5.38778 12.0001 5.59995 12.0001H10.4C10.6121 12.0001 10.8156 11.9158 10.9656 11.7658C11.1157 11.6158 11.2 11.4123 11.2 11.2001C11.2 10.9879 11.1157 10.7844 10.9656 10.6344C10.8156 10.4844 10.6121 10.4001 10.4 10.4001H5.59995Z" fill="#B9B9B9"/>
</svg>
