<svg width="16" height="16" viewBox="0 0 16 16" fill="none" xmlns="http://www.w3.org/2000/svg">
<path d="M4.80001 7.9999C4.80001 8.42425 4.63144 8.83121 4.33138 9.13127C4.03132 9.43133 3.62435 9.5999 3.20001 9.5999C2.77566 9.5999 2.36869 9.43133 2.06864 9.13127C1.76858 8.83121 1.60001 8.42425 1.60001 7.9999C1.60001 7.57556 1.76858 7.16859 2.06864 6.86853C2.36869 6.56847 2.77566 6.3999 3.20001 6.3999C3.62435 6.3999 4.03132 6.56847 4.33138 6.86853C4.63144 7.16859 4.80001 7.57556 4.80001 7.9999ZM9.60001 7.9999C9.60001 8.42425 9.43143 8.83121 9.13138 9.13127C8.83132 9.43133 8.42435 9.5999 8.00001 9.5999C7.57566 9.5999 7.16869 9.43133 6.86864 9.13127C6.56858 8.83121 6.40001 8.42425 6.40001 7.9999C6.40001 7.57556 6.56858 7.16859 6.86864 6.86853C7.16869 6.56847 7.57566 6.3999 8.00001 6.3999C8.42435 6.3999 8.83132 6.56847 9.13138 6.86853C9.43143 7.16859 9.60001 7.57556 9.60001 7.9999V7.9999ZM12.8 9.5999C13.2244 9.5999 13.6313 9.43133 13.9314 9.13127C14.2314 8.83121 14.4 8.42425 14.4 7.9999C14.4 7.57556 14.2314 7.16859 13.9314 6.86853C13.6313 6.56847 13.2244 6.3999 12.8 6.3999C12.3757 6.3999 11.9687 6.56847 11.6686 6.86853C11.3686 7.16859 11.2 7.57556 11.2 7.9999C11.2 8.42425 11.3686 8.83121 11.6686 9.13127C11.9687 9.43133 12.3757 9.5999 12.8 9.5999Z" fill="#777788"/>
</svg>
