<svg width="16" height="16" viewBox="0 0 16 16" fill="none" xmlns="http://www.w3.org/2000/svg">
<path fill-rule="evenodd" clip-rule="evenodd" d="M6.6056 2.47909C7.2176 1.39109 8.7832 1.39109 9.3944 2.47909L13.8584 10.4151C14.4584 11.4823 13.688 12.7991 12.4648 12.7991H3.536C2.312 12.7991 1.5416 11.4823 2.1416 10.4151L6.6056 2.47909ZM8.8 10.3999C8.8 10.6121 8.71572 10.8155 8.56569 10.9656C8.41566 11.1156 8.21217 11.1999 8 11.1999C7.78783 11.1999 7.58434 11.1156 7.43432 10.9656C7.28429 10.8155 7.2 10.6121 7.2 10.3999C7.2 10.1877 7.28429 9.98423 7.43432 9.8342C7.58434 9.68417 7.78783 9.59989 8 9.59989C8.21217 9.59989 8.41566 9.68417 8.56569 9.8342C8.71572 9.98423 8.8 10.1877 8.8 10.3999V10.3999ZM8 3.99989C7.78783 3.99989 7.58434 4.08417 7.43432 4.2342C7.28429 4.38423 7.2 4.58771 7.2 4.79989V7.19989C7.2 7.41206 7.28429 7.61554 7.43432 7.76557C7.58434 7.9156 7.78783 7.99989 8 7.99989C8.21217 7.99989 8.41566 7.9156 8.56569 7.76557C8.71572 7.61554 8.8 7.41206 8.8 7.19989V4.79989C8.8 4.58771 8.71572 4.38423 8.56569 4.2342C8.41566 4.08417 8.21217 3.99989 8 3.99989Z" fill="#FF9900"/>
</svg>
