<svg width="16" height="16" viewBox="0 0 16 16" fill="none" xmlns="http://www.w3.org/2000/svg">
<path fill-rule="evenodd" clip-rule="evenodd" d="M14.4 8.0001C14.4 9.69748 13.7257 11.3253 12.5255 12.5256C11.3252 13.7258 9.69736 14.4001 7.99998 14.4001C6.30259 14.4001 4.67473 13.7258 3.47449 12.5256C2.27426 11.3253 1.59998 9.69748 1.59998 8.0001C1.59998 6.30271 2.27426 4.67485 3.47449 3.47461C4.67473 2.27438 6.30259 1.6001 7.99998 1.6001C9.69736 1.6001 11.3252 2.27438 12.5255 3.47461C13.7257 4.67485 14.4 6.30271 14.4 8.0001V8.0001ZM8.79998 11.2001C8.79998 11.4123 8.71569 11.6158 8.56566 11.7658C8.41563 11.9158 8.21215 12.0001 7.99998 12.0001C7.7878 12.0001 7.58432 11.9158 7.43429 11.7658C7.28426 11.6158 7.19998 11.4123 7.19998 11.2001C7.19998 10.9879 7.28426 10.7844 7.43429 10.6344C7.58432 10.4844 7.7878 10.4001 7.99998 10.4001C8.21215 10.4001 8.41563 10.4844 8.56566 10.6344C8.71569 10.7844 8.79998 10.9879 8.79998 11.2001V11.2001ZM7.99998 4.0001C7.7878 4.0001 7.58432 4.08438 7.43429 4.23441C7.28426 4.38444 7.19998 4.58792 7.19998 4.8001V8.0001C7.19998 8.21227 7.28426 8.41575 7.43429 8.56578C7.58432 8.71581 7.7878 8.8001 7.99998 8.8001C8.21215 8.8001 8.41563 8.71581 8.56566 8.56578C8.71569 8.41575 8.79998 8.21227 8.79998 8.0001V4.8001C8.79998 4.58792 8.71569 4.38444 8.56566 4.23441C8.41563 4.08438 8.21215 4.0001 7.99998 4.0001Z" fill="#DD0000"/>
</svg>
