<svg width="32" height="32" viewBox="0 0 32 32" fill="none" xmlns="http://www.w3.org/2000/svg">
<g clip-path="url(#clip0_45_12805)">
<path d="M30.3077 0.0415039H1.8506C0.887039 0.0415039 0.0117188 0.766897 0.0117188 1.77806V30.064C0.0117188 31.075 0.887039 31.9884 1.8506 31.9884H30.3071C31.2709 31.9884 31.9582 31.075 31.9582 30.0638V1.77842C31.9582 0.767253 31.2709 0.0418604 30.3074 0.0418604L30.3077 0.0415039ZM22.9736 4.14131C26.0636 4.48346 28.7849 6.98809 29.1287 10.3577H22.9736V4.14131ZM29.1186 11.6888C28.9536 12.8406 28.4485 14.2373 27.666 15.2735L24.0813 11.6888H29.1186ZM21.6425 4.14071V11.3566L26.9451 16.4358C25.74 17.4636 24.1838 18.0871 22.4776 18.0871C18.6466 18.0871 15.4335 14.9671 15.4335 11.097C15.4335 7.46057 18.1426 4.49976 21.6421 4.14143L21.6425 4.14071ZM3.75337 4.0351H12.301C12.7977 4.0351 13.2007 4.53649 13.2007 5.03349C13.2007 5.53024 12.7977 6.03187 12.301 6.03187H3.75337C3.25662 6.03187 2.85363 5.53048 2.85363 5.03349C2.85363 4.53673 3.25613 4.0351 3.75337 4.0351ZM3.75337 8.36125H12.301C12.7977 8.36125 13.2007 8.86264 13.2007 9.35964C13.2007 9.85639 12.7977 10.358 12.301 10.358H3.75337C3.25662 10.358 2.85363 9.85663 2.85363 9.35964C2.85363 8.86289 3.25613 8.36125 3.75337 8.36125ZM3.75337 12.6874H12.301C12.7977 12.6874 13.2007 13.1888 13.2007 13.6858C13.2007 14.1825 12.7977 14.6842 12.301 14.6842H3.75337C3.25662 14.6842 2.85363 14.1828 2.85363 13.6858C2.85363 13.1888 3.25613 12.6874 3.75337 12.6874ZM3.75337 17.0135H14.9632C15.4599 17.0135 15.8629 17.5149 15.8629 18.0119C15.8629 18.5087 15.46 19.0103 14.9632 19.0103L3.75337 19.0101C3.25662 19.0101 2.85363 18.5087 2.85363 18.0117C2.85363 17.515 3.25613 17.0135 3.75337 17.0135ZM28.2736 27.6624H3.75337C3.25662 27.6624 2.85363 27.161 2.85363 26.664C2.85363 26.1672 3.2566 25.6656 3.75337 25.6656H28.2742C28.771 25.6656 29.174 26.167 29.174 26.664C29.174 27.161 28.771 27.6624 28.274 27.6624H28.2736ZM28.2736 23.3362H3.75337C3.25662 23.3362 2.85363 22.8348 2.85363 22.3379C2.85363 21.8411 3.2566 21.3395 3.75337 21.3395H28.2742C28.771 21.3395 29.174 21.8409 29.174 22.3379C29.174 22.8348 28.771 23.3362 28.274 23.3362H28.2736Z" fill="white"/>
</g>
<defs>
<clipPath id="clip0_45_12805">
<rect width="32" height="32" fill="white"/>
</clipPath>
</defs>
</svg>
