<svg width="16" height="16" viewBox="0 0 16 16" fill="none" xmlns="http://www.w3.org/2000/svg">
<path fill-rule="evenodd" clip-rule="evenodd" d="M8.00001 1.55518C6.27597 3.10223 4.04902 3.97096 1.73281 3.99998C1.64481 4.51918 1.60001 5.05518 1.60001 5.59998C1.60001 9.77998 4.27201 13.336 8.00001 14.6536C11.728 13.336 14.4 9.77998 14.4 5.59998C14.4 5.05438 14.3544 4.51998 14.2672 3.99918C11.9511 3.97038 9.72416 3.10194 8.00001 1.55518V1.55518ZM8.80001 11.2C8.80001 11.4121 8.71572 11.6156 8.56569 11.7657C8.41566 11.9157 8.21218 12 8.00001 12C7.78783 12 7.58435 11.9157 7.43432 11.7657C7.28429 11.6156 7.20001 11.4121 7.20001 11.2C7.20001 10.9878 7.28429 10.7843 7.43432 10.6343C7.58435 10.4843 7.78783 10.4 8.00001 10.4C8.21218 10.4 8.41566 10.4843 8.56569 10.6343C8.71572 10.7843 8.80001 10.9878 8.80001 11.2V11.2ZM8.80001 5.59998C8.80001 5.3878 8.71572 5.18432 8.56569 5.03429C8.41566 4.88426 8.21218 4.79998 8.00001 4.79998C7.78783 4.79998 7.58435 4.88426 7.43432 5.03429C7.28429 5.18432 7.20001 5.3878 7.20001 5.59998V7.99998C7.20001 8.21215 7.28429 8.41563 7.43432 8.56566C7.58435 8.71569 7.78783 8.79998 8.00001 8.79998C8.21218 8.79998 8.41566 8.71569 8.56569 8.56566C8.71572 8.41563 8.80001 8.21215 8.80001 7.99998V5.59998Z" fill="#22782B"/>
</svg>
