<svg width="36" height="36" viewBox="0 0 36 36" fill="none" xmlns="http://www.w3.org/2000/svg">
<path fill-rule="evenodd" clip-rule="evenodd" d="M3.8989 8.99802C9.11014 8.93323 14.1208 6.97925 18.0001 3.49902C21.8792 6.9799 26.8898 8.93453 32.1013 8.99982C32.2993 10.1698 32.4001 11.3758 32.4001 12.6016C32.4001 22.0066 26.3881 30.0076 18.0001 32.9722C9.6121 30.0058 3.6001 22.0048 3.6001 12.5998C3.6001 11.3722 3.7027 10.1698 3.8989 8.99802V8.99802ZM24.6727 15.6724C25.0006 15.3329 25.182 14.8783 25.1779 14.4063C25.1738 13.9343 24.9845 13.4829 24.6508 13.1491C24.317 12.8154 23.8656 12.6261 23.3936 12.622C22.9217 12.6179 22.467 12.7993 22.1275 13.1272L16.2001 19.0546L13.8727 16.7272C13.5332 16.3993 13.0785 16.2179 12.6066 16.222C12.1346 16.2261 11.6832 16.4154 11.3494 16.7491C11.0157 17.0829 10.8264 17.5343 10.8223 18.0063C10.8182 18.4783 10.9996 18.9329 11.3275 19.2724L14.9275 22.8724C15.265 23.2099 15.7228 23.3994 16.2001 23.3994C16.6774 23.3994 17.1351 23.2099 17.4727 22.8724L24.6727 15.6724V15.6724Z" fill="white"/>
</svg>
