<svg width="36" height="36" viewBox="0 0 36 36" fill="none" xmlns="http://www.w3.org/2000/svg">
<path d="M16.2 10.8C16.2 12.2322 15.6311 13.6057 14.6184 14.6184C13.6057 15.6311 12.2322 16.2 10.8 16.2C9.36788 16.2 7.99437 15.6311 6.98167 14.6184C5.96898 13.6057 5.40005 12.2322 5.40005 10.8C5.40005 9.36786 5.96898 7.99434 6.98167 6.98165C7.99437 5.96895 9.36788 5.40002 10.8 5.40002C12.2322 5.40002 13.6057 5.96895 14.6184 6.98165C15.6311 7.99434 16.2 9.36786 16.2 10.8V10.8ZM30.6 10.8C30.6 11.5092 30.4604 12.2114 30.189 12.8665C29.9176 13.5217 29.5199 14.117 29.0184 14.6184C28.517 15.1198 27.9217 15.5176 27.2665 15.789C26.6114 16.0604 25.9092 16.2 25.2 16.2C24.4909 16.2 23.7887 16.0604 23.1336 15.789C22.4784 15.5176 21.8831 15.1198 21.3817 14.6184C20.8802 14.117 20.4825 13.5217 20.2111 12.8665C19.9397 12.2114 19.8 11.5092 19.8 10.8C19.8 9.36786 20.369 7.99434 21.3817 6.98165C22.3944 5.96895 23.7679 5.40002 25.2 5.40002C26.6322 5.40002 28.0057 5.96895 29.0184 6.98165C30.0311 7.99434 30.6 9.36786 30.6 10.8V10.8ZM23.2741 30.6C23.3569 30.0114 23.4 29.412 23.4 28.8C23.4042 25.972 22.4528 23.2255 20.7 21.006C22.0682 20.2161 23.6202 19.8003 25.2 19.8003C26.7798 19.8002 28.3318 20.2161 29.7 21.006C31.0681 21.7959 32.2043 22.932 32.9942 24.3001C33.7841 25.6682 34.2 27.2202 34.2001 28.8V30.6H23.2741ZM10.8 19.8C13.187 19.8 15.4762 20.7482 17.164 22.4361C18.8518 24.1239 19.8 26.4131 19.8 28.8V30.6H1.80005V28.8C1.80005 26.4131 2.74826 24.1239 4.43609 22.4361C6.12392 20.7482 8.4131 19.8 10.8 19.8V19.8Z" fill="white"/>
</svg>
